# xmcd
#
# Track frame offsets:
#	150
#	14008
#	39962
#	63009
#	86107
#	101917
#	117396
#	134085
#	156444
#	172251
#	195211
#	218453
#	232907
#	254367
#
# Disc length: 3634 seconds
#
# Revision: 1
# Processed by: cddbd v1.5.2PL0 Copyright (c) Steve Scherf et al.
# Submitted via: EZCDAudioConverter 7.1.2.1
#
DISCID=c10e300e
DTITLE=Various Artist - Funk Explosion
DYEAR=2004
DGENRE=Funk
TTITLE0=Kool and The Gang - Jungle Boogie
TTITLE1=Parliament - Give Up The Funk (Tear The Roof Off The Sucker)
TTITLE2=James Brown - Sex Machine (Live '71)
TTITLE3=The Gap Band - You Dropped A Bomb On Me
TTITLE4=The Commodores - Brick House
TTITLE5=Rick James - Super Freak
TTITLE6=The O'Jays - For The Love Of Money
TTITLE7=Wild Cherry - Play That Funky Music
TTITLE8=Rufus - Tell Me Something Good
TTITLE9=Rose Royce - Car Wash
TTITLE10=Bar-Keys - Freaky Behavior
TTITLE11=B.T. Express - Do It ('Til Your Satisfied)
TTITLE12=The Ohio Players - Love Rollercoaster
TTITLE13=Dazz Band - Let It Whip
EXTD=
EXTT0=
EXTT1=
EXTT2=
EXTT3=
EXTT4=
EXTT5=
EXTT6=
EXTT7=
EXTT8=
EXTT9=
EXTT10=
EXTT11=
EXTT12=
EXTT13=
PLAYORDER=
